<?xml version="1.0" encoding="utf-8"?>
<!-- Generator: Adobe Illustrator 24.0.1, SVG Export Plug-In . SVG Version: 6.00 Build 0)  -->
<svg version="1.1" id="Layer_1" xmlns="http://www.w3.org/2000/svg" xmlns:xlink="http://www.w3.org/1999/xlink" x="0px" y="0px"
	 viewBox="0 0 640 480" style="enable-background:new 0 0 640 480;" xml:space="preserve">
<style type="text/css">
	.st0{fill:#206BC4;}
	.st1{fill-rule:evenodd;clip-rule:evenodd;fill:#13437C;}
	.st2{fill-rule:evenodd;clip-rule:evenodd;fill:#545454;}
</style>
<g>
	<g>
		<g id="Shape_1_2_">
			<g>
				<polygon class="st0" points="380.04,75.77 367.1,93.53 394.78,93.53 407.06,75.72 				"/>
			</g>
		</g>
		<path class="st1" d="M171.76,127.67"/>
		<g>
			<g id="CAR_2_">
				<g>
					<path class="st2" d="M225.06,126.41c-10.27,0-17.81-6.63-17.81-16.32c0-9.79,7.63-16.63,17.81-16.63h30.52l12.08-17.74h-42.6
						c-21.08,0-36.62,13.46-36.62,33.45c0,19.79,15.54,34.79,36.62,34.79h30.52l12.08-17.54H225.06z M312.99,74.6
						c-5.9,0-9.63,3.67-12.17,7.65l-38.97,61.71h22.26l28.53-45.29l10.9,18.05c2,3.26,4.54,7.45,6.18,9.89
						c-2.9-0.21-7.18-0.21-10.81-0.21h-15.26l-11.35,17.54h70.67l-37.97-61.71C322.34,77.97,318.62,74.6,312.99,74.6z M440.17,130.7
						c-4.18-4.79-6.45-7.24-8.54-8.98c9.99-2.25,15.9-11.02,15.9-21.62c0-19.48-17.45-24.38-31.26-24.38h-3.99l-12.27,17.74h17.8
						c6.45,0,10.36,2.65,10.36,7.96c0,4.69-4.54,7.65-10.36,7.65h-52.87v34.88h18.8V125.9h28.89l13.53,18.05h25.16L440.17,130.7z"/>
				</g>
			</g>
			<g>
			</g>
		</g>
		<path class="st1" d="M131.91,125.74"/>
		<g>
			<path class="st0" d="M150.53,101.13v46.88h21.02V87.8c0-9.66-5.86-13.56-12.37-13.56c-2.6,0-6.62,0.97-10.2,3.9l-50.76,40.65
				l30.87,0.04L150.53,101.13"/>
			<g>
				<g id="Rounded_Rectangle_2_2_">
					<g>
						<path class="st1" d="M139.94,116.79h-35.75c-4.84,0-8.75,2.74-8.75,7.62c0,4.88,3.92,9.74,8.75,9.74h36.55
							c4.83,0,7.54-2.89,7.54-9.74C148.28,119.53,144.78,116.79,139.94,116.79z"/>
					</g>
				</g>
				<rect x="139.94" y="116.79" class="st1" width="8.34" height="17.37"/>
			</g>
			<path class="st1" d="M173.79,134.16h5.4c4.79,0,8.68-3.89,8.68-8.68l0,0c0-4.79-3.88-8.67-8.68-8.67h-5.41"/>
		</g>
	</g>
	<g id="Shape_2_2_">
		<g>
			<path class="st0" d="M476.56,52.07c-6.11,3.4-36.24,0.71-36.24,0.71c-33.25-4.25-64.62-19.13-64.62-19.13
				c-15.36-6.01-29.34-11.24-29.34-11.24C265.45-1.69,204.93,40.98,204.93,40.98c-9.6,5.79-26.72,15.32-26.72,15.32
				c-7.27,3.27-24.63,6.67-24.63,6.67C107.2,69.37,82.7,96.86,82.7,96.86c26.52-17.7,31.83-19.08,31.83-19.08
				c22.6-9.79,53.07-12.17,53.07-12.17c47.37-9.89,61.18-26.23,94.26-32.5c46.25-8.77,90.52,4.58,92.64,5.53
				c2.12,0.95,40.04,9.39,40.04,9.39c35.45,7.6,65.88,12.96,65.88,12.96l-2.38,8.39c-7.34,16.72,6.58,41.56,6.58,41.56l-2.36-23.65
				C460.57,70.79,476.56,52.07,476.56,52.07z"/>
		</g>
	</g>
</g>
</svg>
